<svg width="32" height="32" viewBox="0 0 32 32" fill="none" xmlns="http://www.w3.org/2000/svg">
<path d="M8.30031 6.41494C7.77961 5.89424 6.93539 5.89424 6.41469 6.41494C5.894 6.93564 5.894 7.77986 6.41469 8.30056L14.1143 16.0002L6.41477 23.6998C5.89408 24.2205 5.89407 25.0647 6.41477 25.5854C6.93547 26.1061 7.77969 26.1061 8.30039 25.5854L16 17.8858L23.6995 25.5854C24.2202 26.1061 25.0644 26.1061 25.5851 25.5854C26.1058 25.0647 26.1058 24.2205 25.5851 23.6998L17.8856 16.0002L25.5852 8.30056C26.1059 7.77986 26.1059 6.93564 25.5852 6.41494C25.0645 5.89424 24.2203 5.89424 23.6996 6.41494L16 14.1146L8.30031 6.41494Z" fill="#828282"/>
</svg>
