<svg width="22" height="18" viewBox="0 0 22 18" fill="none" xmlns="http://www.w3.org/2000/svg">
<path fill-rule="evenodd" clip-rule="evenodd" d="M2.10654 2.55395C2.27192 2.22692 2.612 2 2.99996 2H19C19.3879 2 19.728 2.22692 19.8934 2.55395L11 8.77934L2.10654 2.55395ZM1.22635e-05 2.98266C-0.000149914 2.99253 -0.000166264 3.00239 -3.72483e-05 3.01225V15C-3.72483e-05 16.6523 1.34768 18 2.99996 18H19C20.6522 18 22 16.6523 22 15V3.01222M20 4.92066V15C20 15.5477 19.5477 16 19 16H2.99996C2.45225 16 1.99996 15.5477 1.99996 15V4.92066L10.4265 10.8192C10.7708 11.0603 11.2291 11.0603 11.5734 10.8192L20 4.92066ZM21.9999 2.98402C21.9913 1.33904 20.6469 0 19 0H2.99996C1.35346 0 0.00940315 1.3383 1.22635e-05 2.98266" fill="#828282"/>
</svg>
